<mxfile host="app.diagrams.net" modified="2023-03-01T02:53:47.872Z" agent="5.0 (Windows NT 10.0; Win64; x64) AppleWebKit/537.36 (KHTML, like Gecko) Chrome/100.0.4896.127 Safari/537.36" etag="n-_txrlSYW5QliB-XwxO" version="20.8.23" type="github">
  <diagram name="第 1 页" id="A2An8v7e-J6f2VG4I7aj">
    <mxGraphModel dx="1430" dy="775" grid="1" gridSize="10" guides="1" tooltips="1" connect="1" arrows="1" fold="1" page="1" pageScale="1" pageWidth="827" pageHeight="1169" math="0" shadow="0">
      <root>
        <mxCell id="0" />
        <mxCell id="1" parent="0" />
        <mxCell id="0TUC5iNp7DX6WAux4Nbz-6" style="edgeStyle=orthogonalEdgeStyle;rounded=0;orthogonalLoop=1;jettySize=auto;html=1;exitX=0.5;exitY=1;exitDx=0;exitDy=0;entryX=0.5;entryY=0;entryDx=0;entryDy=0;fontSize=14;" edge="1" parent="1" source="0TUC5iNp7DX6WAux4Nbz-1" target="0TUC5iNp7DX6WAux4Nbz-2">
          <mxGeometry relative="1" as="geometry" />
        </mxCell>
        <mxCell id="0TUC5iNp7DX6WAux4Nbz-7" style="edgeStyle=orthogonalEdgeStyle;rounded=0;orthogonalLoop=1;jettySize=auto;html=1;exitX=0.5;exitY=1;exitDx=0;exitDy=0;entryX=0.5;entryY=0;entryDx=0;entryDy=0;fontSize=14;" edge="1" parent="1" source="0TUC5iNp7DX6WAux4Nbz-1" target="0TUC5iNp7DX6WAux4Nbz-3">
          <mxGeometry relative="1" as="geometry" />
        </mxCell>
        <mxCell id="0TUC5iNp7DX6WAux4Nbz-8" style="edgeStyle=orthogonalEdgeStyle;rounded=0;orthogonalLoop=1;jettySize=auto;html=1;exitX=0.5;exitY=1;exitDx=0;exitDy=0;entryX=0.5;entryY=0;entryDx=0;entryDy=0;fontSize=14;" edge="1" parent="1" source="0TUC5iNp7DX6WAux4Nbz-1" target="0TUC5iNp7DX6WAux4Nbz-4">
          <mxGeometry relative="1" as="geometry" />
        </mxCell>
        <mxCell id="0TUC5iNp7DX6WAux4Nbz-1" value="动态变换子系统" style="rounded=0;whiteSpace=wrap;html=1;fontSize=14;" vertex="1" parent="1">
          <mxGeometry x="250" y="140" width="140" height="40" as="geometry" />
        </mxCell>
        <mxCell id="0TUC5iNp7DX6WAux4Nbz-2" value="内&lt;br&gt;网&lt;br&gt;逻&lt;br&gt;辑&lt;br&gt;切&lt;br&gt;片&lt;br&gt;模&lt;br&gt;块" style="rounded=0;whiteSpace=wrap;html=1;fontSize=14;" vertex="1" parent="1">
          <mxGeometry x="230" y="250" width="40" height="170" as="geometry" />
        </mxCell>
        <mxCell id="0TUC5iNp7DX6WAux4Nbz-3" value="通&lt;br&gt;信&lt;br&gt;指&lt;br&gt;纹&lt;br&gt;变&lt;br&gt;换&lt;br&gt;模&lt;br&gt;块" style="rounded=0;whiteSpace=wrap;html=1;fontSize=14;" vertex="1" parent="1">
          <mxGeometry x="300" y="250" width="40" height="170" as="geometry" />
        </mxCell>
        <mxCell id="0TUC5iNp7DX6WAux4Nbz-4" value="网&lt;br&gt;络&lt;br&gt;服&lt;br&gt;务&lt;br&gt;拟&lt;br&gt;态&lt;br&gt;跃&lt;br&gt;迁&lt;br&gt;模&lt;br&gt;块" style="rounded=0;whiteSpace=wrap;html=1;fontSize=14;" vertex="1" parent="1">
          <mxGeometry x="370" y="250" width="40" height="170" as="geometry" />
        </mxCell>
      </root>
    </mxGraphModel>
  </diagram>
</mxfile>
